# xmcd
#
# Track frame offsets:
#	150
#	9914
#	29932
#	50748
#	66693
#	78941
#	96697
#	113922
#	121343
#	134479
#	145385
#	161332
#	176023
#
# Disc length: 2503 seconds
#
# Revision: 0
# Processed by: cddbd v1.5.1PL2 Copyright (c) Steve Scherf et al.
# Submitted via: EasyCDDAExtractor 8.2.2.1
#
DISCID=c409c50d
DTITLE=Long Distance Call Blues - Mississippi Moonlight
DYEAR=2005
DGENRE=Blues
TTITLE0=Whitelies
TTITLE1=Mississippi Moonlight
TTITLE2=Ellis Island
TTITLE3=Train To Greenville
TTITLE4=Song For A Homely Man
TTITLE5=Barrelhouse Blues
TTITLE6=Losing Game
TTITLE7=Slide Raw
TTITLE8=Rainy Night Blues
TTITLE9=Back To The South
TTITLE10=Back To The South (alt)
TTITLE11=Blues In G
TTITLE12=Guitar Strain
EXTD=
EXTT0=
EXTT1=
EXTT2=
EXTT3=
EXTT4=
EXTT5=
EXTT6=
EXTT7=
EXTT8=
EXTT9=
EXTT10=
EXTT11=
EXTT12=
PLAYORDER=
